# xmcd
#
# Track frame offsets:
# 150
# 24481
# 71253
# 108679
# 144068
# 176921
# 209949
# 230875
# 252972
# 269214
# 292412
#
# Disc length: 4115 seconds
#
#
# Revision: 0
# Processed by: cddbd v1.5.2PL0 Copyright (c) Steve Scherf et al.
# Submitted via: FreeRIP 2.96 
#
DISCID=bc10110b
DTITLE=Various Artist - The Best of Blue Note
DYEAR=2014
DGENRE=Jazz
TTITLE0=Chitlins Con Carne - Kenny Burrell
TTITLE1=The Sidewinder - Lee Morgan
TTITLE2=Speak No Evil - Wayne Shorter
TTITLE3=Maiden Voyage - Herbie Hancock
TTITLE4=Song for my Father - Horace Silver
TTITLE5=Black Byrd - Donald Byrd
TTITLE6=Cantaloop (Flip fantasia) - US3 feat Rahsaan and Gerard Presencer
TTITLE7=Come on in my Kitchen - Cassandra Wilson
TTITLE8=Cold, cold Heart - Norah Jones
TTITLE9=Afro Blue - Robert Glasperfeat Erykah Badu
TTITLE10=Liquid Spirit - Gregory Porter
EXTD=
EXTT0=
EXTT1=
EXTT2=
EXTT3=
EXTT4=
EXTT5=
EXTT6=
EXTT7=
EXTT8=
EXTT9=
EXTT10=
PLAYORDER=
